<svg xmlns="http://www.w3.org/2000/svg" viewBox="0 0 200 200" fill="none">
  <!-- Clean Great Blue Heron Logo -->
  <g transform="translate(100,100)">
    <!-- Body with wing detail -->
    <path d="M -15 -10 C -20 -5 -22 10 -18 25 C -15 35 -10 40 0 42 C 10 40 15 35 18 25 C 22 10 20 -5 15 -10 C 10 -15 5 -18 0 -20 C -5 -18 -10 -15 -15 -10 Z" 
          fill="#1a202c" stroke="none"/>
    
    <!-- Wing accent -->
    <path d="M 5 5 C 12 8 16 15 18 25 C 15 30 10 32 5 30 C 3 20 3 10 5 5 Z" 
          fill="#4299e1" opacity="0.8"/>
    
    <!-- Neck -->
    <path d="M -3 -20 C -4 -35 -3 -45 -2 -55" 
          stroke="#1a202c" stroke-width="12" fill="none" stroke-linecap="round"/>
    
    <!-- Head -->
    <ellipse cx="-2" cy="-60" rx="8" ry="6" fill="#1a202c"/>
    
    <!-- Beak -->
    <path d="M -10 -60 L -22 -58 L -10 -56 Z" fill="#1a202c"/>
    
    <!-- White marking -->
    <path d="M -8 -58 C -6 -60 -4 -60 -2 -58 C -2 -56 -4 -54 -6 -54 C -8 -54 -9 -56 -8 -58 Z" 
          fill="white"/>
    
    <!-- Eye -->
    <circle cx="-4" cy="-60" r="1.5" fill="#1a202c"/>
    
    <!-- Legs -->
    <line x1="-5" y1="42" x2="-5" y2="70" stroke="#1a202c" stroke-width="6" stroke-linecap="round"/>
    <line x1="5" y1="42" x2="5" y2="70" stroke="#1a202c" stroke-width="6" stroke-linecap="round"/>
    
    <!-- Feet -->
    <path d="M -5 70 L -5 75" stroke="#1a202c" stroke-width="4" stroke-linecap="round"/>
    <path d="M 5 70 L 5 75" stroke="#1a202c" stroke-width="4" stroke-linecap="round"/>
  </g>
</svg>